<svg width="116" height="164" viewBox="0 0 116 164" fill="none" xmlns="http://www.w3.org/2000/svg">
<rect width="116" height="164" fill="#D9D9D9"/>
<mask id="path-2-outside-1_1_6" maskUnits="userSpaceOnUse" x="21" y="69" width="72" height="17" fill="black">
<rect fill="white" x="21" y="69" width="72" height="17"/>
<path d="M31.6364 70.3636V82H30.2727L23.9318 72.8636H23.8182V82H22.4091V70.3636H23.7727L30.1364 79.5227H30.25V70.3636H31.6364ZM37.8196 82.1818C37.0317 82.1818 36.3404 81.9943 35.7457 81.6193C35.1548 81.2443 34.6927 80.7197 34.3594 80.0455C34.0298 79.3712 33.8651 78.5833 33.8651 77.6818C33.8651 76.7727 34.0298 75.9792 34.3594 75.3011C34.6927 74.6231 35.1548 74.0966 35.7457 73.7216C36.3404 73.3466 37.0317 73.1591 37.8196 73.1591C38.6075 73.1591 39.2969 73.3466 39.8878 73.7216C40.4825 74.0966 40.9446 74.6231 41.2741 75.3011C41.6075 75.9792 41.7741 76.7727 41.7741 77.6818C41.7741 78.5833 41.6075 79.3712 41.2741 80.0455C40.9446 80.7197 40.4825 81.2443 39.8878 81.6193C39.2969 81.9943 38.6075 82.1818 37.8196 82.1818ZM37.8196 80.9773C38.4181 80.9773 38.9105 80.8239 39.2969 80.517C39.6832 80.2102 39.9692 79.8068 40.1548 79.3068C40.3404 78.8068 40.4332 78.2652 40.4332 77.6818C40.4332 77.0985 40.3404 76.5549 40.1548 76.0511C39.9692 75.5473 39.6832 75.1402 39.2969 74.8295C38.9105 74.5189 38.4181 74.3636 37.8196 74.3636C37.2211 74.3636 36.7287 74.5189 36.3423 74.8295C35.956 75.1402 35.67 75.5473 35.4844 76.0511C35.2988 76.5549 35.206 77.0985 35.206 77.6818C35.206 78.2652 35.2988 78.8068 35.4844 79.3068C35.67 79.8068 35.956 80.2102 36.3423 80.517C36.7287 80.8239 37.2211 80.9773 37.8196 80.9773ZM49.9119 70.3636V82H48.5028V70.3636H49.9119ZM52.5554 82V73.2727H53.8509V74.6364H53.9645C54.1463 74.1705 54.4399 73.8087 54.8452 73.5511C55.2505 73.2898 55.7372 73.1591 56.3054 73.1591C56.8812 73.1591 57.3603 73.2898 57.7429 73.5511C58.1293 73.8087 58.4304 74.1705 58.6463 74.6364H58.7372C58.9607 74.1856 59.2959 73.8277 59.7429 73.5625C60.1899 73.2936 60.7259 73.1591 61.3509 73.1591C62.1312 73.1591 62.7694 73.4034 63.2656 73.892C63.7618 74.3769 64.0099 75.1326 64.0099 76.1591V82H62.669V76.1591C62.669 75.5152 62.4929 75.0549 62.1406 74.7784C61.7884 74.5019 61.3736 74.3636 60.8963 74.3636C60.2827 74.3636 59.8073 74.5492 59.4702 74.9205C59.133 75.2879 58.9645 75.7538 58.9645 76.3182V82H57.6009V76.0227C57.6009 75.5265 57.4399 75.1269 57.1179 74.8239C56.7959 74.517 56.3812 74.3636 55.8736 74.3636C55.5251 74.3636 55.1993 74.4564 54.8963 74.642C54.5971 74.8277 54.3546 75.0852 54.169 75.4148C53.9872 75.7405 53.8963 76.1174 53.8963 76.5455V82H52.5554ZM69.0298 82.2045C68.4768 82.2045 67.9749 82.1004 67.5241 81.892C67.0734 81.6799 66.7154 81.375 66.4503 80.9773C66.1851 80.5758 66.0526 80.0909 66.0526 79.5227C66.0526 79.0227 66.151 78.6174 66.348 78.3068C66.545 77.9924 66.8082 77.7462 67.1378 77.5682C67.4673 77.3902 67.831 77.2576 68.2287 77.1705C68.6302 77.0795 69.0336 77.0076 69.4389 76.9545C69.9692 76.8864 70.3991 76.8352 70.7287 76.8011C71.062 76.7633 71.3045 76.7008 71.456 76.6136C71.6113 76.5265 71.6889 76.375 71.6889 76.1591V76.1136C71.6889 75.553 71.5355 75.1174 71.2287 74.8068C70.9257 74.4962 70.4654 74.3409 69.848 74.3409C69.2079 74.3409 68.706 74.4811 68.3423 74.7614C67.9787 75.0417 67.723 75.3409 67.5753 75.6591L66.3026 75.2045C66.5298 74.6742 66.8329 74.2614 67.2116 73.9659C67.5942 73.6667 68.0109 73.4583 68.4616 73.3409C68.9162 73.2197 69.3632 73.1591 69.8026 73.1591C70.0829 73.1591 70.4048 73.1932 70.7685 73.2614C71.1359 73.3258 71.4901 73.4602 71.831 73.6648C72.1757 73.8693 72.4616 74.178 72.6889 74.5909C72.9162 75.0038 73.0298 75.5568 73.0298 76.25V82H71.6889V80.8182H71.6207C71.5298 81.0076 71.3783 81.2102 71.1662 81.4261C70.9541 81.642 70.6719 81.8258 70.3196 81.9773C69.9673 82.1288 69.5374 82.2045 69.0298 82.2045ZM69.2344 81C69.7647 81 70.2116 80.8958 70.5753 80.6875C70.9427 80.4792 71.2192 80.2102 71.4048 79.8807C71.5942 79.5511 71.6889 79.2045 71.6889 78.8409V77.6136C71.6321 77.6818 71.5071 77.7443 71.3139 77.8011C71.1245 77.8542 70.9048 77.9015 70.6548 77.9432C70.4086 77.9811 70.1681 78.0152 69.9332 78.0455C69.7022 78.072 69.5147 78.0947 69.3707 78.1136C69.0223 78.1591 68.6965 78.233 68.3935 78.3352C68.0942 78.4337 67.8518 78.5833 67.6662 78.7841C67.4844 78.9811 67.3935 79.25 67.3935 79.5909C67.3935 80.0568 67.5658 80.4091 67.9105 80.6477C68.259 80.8826 68.7003 81 69.2344 81ZM79 85.4545C78.3523 85.4545 77.7955 85.3712 77.3295 85.2045C76.8636 85.0417 76.4754 84.8258 76.1648 84.5568C75.858 84.2917 75.6136 84.0076 75.4318 83.7045L76.5 82.9545C76.6212 83.1136 76.7746 83.2955 76.9602 83.5C77.1458 83.7083 77.3996 83.8883 77.7216 84.0398C78.0473 84.1951 78.4735 84.2727 79 84.2727C79.7045 84.2727 80.286 84.1023 80.7443 83.7614C81.2027 83.4205 81.4318 82.8864 81.4318 82.1591V80.3864H81.3182C81.2197 80.5455 81.0795 80.7424 80.8977 80.9773C80.7197 81.2083 80.4621 81.4148 80.125 81.5966C79.7917 81.7746 79.3409 81.8636 78.7727 81.8636C78.0682 81.8636 77.4356 81.697 76.875 81.3636C76.3182 81.0303 75.8769 80.5455 75.5511 79.9091C75.2292 79.2727 75.0682 78.5 75.0682 77.5909C75.0682 76.697 75.2254 75.9186 75.5398 75.2557C75.8542 74.589 76.2917 74.0739 76.8523 73.7102C77.4129 73.3428 78.0606 73.1591 78.7955 73.1591C79.3636 73.1591 79.8144 73.2538 80.1477 73.4432C80.4848 73.6288 80.7424 73.8409 80.9205 74.0795C81.1023 74.3144 81.2424 74.5076 81.3409 74.6591H81.4773V73.2727H82.7727V82.25C82.7727 83 82.6023 83.6098 82.2614 84.0795C81.9242 84.553 81.4697 84.8996 80.8977 85.1193C80.3295 85.3428 79.697 85.4545 79 85.4545ZM78.9545 80.6591C79.4924 80.6591 79.947 80.536 80.3182 80.2898C80.6894 80.0436 80.9716 79.6894 81.1648 79.2273C81.358 78.7652 81.4545 78.2121 81.4545 77.5682C81.4545 76.9394 81.3598 76.3845 81.1705 75.9034C80.9811 75.4223 80.7008 75.0455 80.3295 74.7727C79.9583 74.5 79.5 74.3636 78.9545 74.3636C78.3864 74.3636 77.9129 74.5076 77.5341 74.7955C77.1591 75.0833 76.8769 75.4697 76.6875 75.9545C76.5019 76.4394 76.4091 76.9773 76.4091 77.5682C76.4091 78.1742 76.5038 78.7102 76.6932 79.1761C76.8864 79.6383 77.1705 80.0019 77.5455 80.267C77.9242 80.5284 78.3939 80.6591 78.9545 80.6591ZM88.8864 82.1818C88.0455 82.1818 87.3201 81.9962 86.7102 81.625C86.1042 81.25 85.6364 80.7273 85.3068 80.0568C84.9811 79.3826 84.8182 78.5985 84.8182 77.7045C84.8182 76.8106 84.9811 76.0227 85.3068 75.3409C85.6364 74.6553 86.0947 74.1212 86.6818 73.7386C87.2727 73.3523 87.9621 73.1591 88.75 73.1591C89.2045 73.1591 89.6534 73.2348 90.0966 73.3864C90.5398 73.5379 90.9432 73.7841 91.3068 74.125C91.6705 74.4621 91.9602 74.9091 92.1761 75.4659C92.392 76.0227 92.5 76.7083 92.5 77.5227V78.0909H85.7727V76.9318H91.1364C91.1364 76.4394 91.0379 76 90.8409 75.6136C90.6477 75.2273 90.3712 74.9223 90.0114 74.6989C89.6553 74.4754 89.2348 74.3636 88.75 74.3636C88.2159 74.3636 87.7538 74.4962 87.3636 74.7614C86.9773 75.0227 86.6799 75.3636 86.4716 75.7841C86.2633 76.2045 86.1591 76.6553 86.1591 77.1364V77.9091C86.1591 78.5682 86.2727 79.1269 86.5 79.5852C86.7311 80.0398 87.0511 80.3864 87.4602 80.625C87.8693 80.8598 88.3447 80.9773 88.8864 80.9773C89.2386 80.9773 89.5568 80.928 89.8409 80.8295C90.1288 80.7273 90.3769 80.5758 90.5852 80.375C90.7936 80.1705 90.9545 79.9167 91.0682 79.6136L92.3636 79.9773C92.2273 80.4167 91.9981 80.803 91.6761 81.1364C91.3542 81.4659 90.9564 81.7235 90.483 81.9091C90.0095 82.0909 89.4773 82.1818 88.8864 82.1818Z"/>
</mask>
<path d="M31.6364 70.3636V82H30.2727L23.9318 72.8636H23.8182V82H22.4091V70.3636H23.7727L30.1364 79.5227H30.25V70.3636H31.6364ZM37.8196 82.1818C37.0317 82.1818 36.3404 81.9943 35.7457 81.6193C35.1548 81.2443 34.6927 80.7197 34.3594 80.0455C34.0298 79.3712 33.8651 78.5833 33.8651 77.6818C33.8651 76.7727 34.0298 75.9792 34.3594 75.3011C34.6927 74.6231 35.1548 74.0966 35.7457 73.7216C36.3404 73.3466 37.0317 73.1591 37.8196 73.1591C38.6075 73.1591 39.2969 73.3466 39.8878 73.7216C40.4825 74.0966 40.9446 74.6231 41.2741 75.3011C41.6075 75.9792 41.7741 76.7727 41.7741 77.6818C41.7741 78.5833 41.6075 79.3712 41.2741 80.0455C40.9446 80.7197 40.4825 81.2443 39.8878 81.6193C39.2969 81.9943 38.6075 82.1818 37.8196 82.1818ZM37.8196 80.9773C38.4181 80.9773 38.9105 80.8239 39.2969 80.517C39.6832 80.2102 39.9692 79.8068 40.1548 79.3068C40.3404 78.8068 40.4332 78.2652 40.4332 77.6818C40.4332 77.0985 40.3404 76.5549 40.1548 76.0511C39.9692 75.5473 39.6832 75.1402 39.2969 74.8295C38.9105 74.5189 38.4181 74.3636 37.8196 74.3636C37.2211 74.3636 36.7287 74.5189 36.3423 74.8295C35.956 75.1402 35.67 75.5473 35.4844 76.0511C35.2988 76.5549 35.206 77.0985 35.206 77.6818C35.206 78.2652 35.2988 78.8068 35.4844 79.3068C35.67 79.8068 35.956 80.2102 36.3423 80.517C36.7287 80.8239 37.2211 80.9773 37.8196 80.9773ZM49.9119 70.3636V82H48.5028V70.3636H49.9119ZM52.5554 82V73.2727H53.8509V74.6364H53.9645C54.1463 74.1705 54.4399 73.8087 54.8452 73.5511C55.2505 73.2898 55.7372 73.1591 56.3054 73.1591C56.8812 73.1591 57.3603 73.2898 57.7429 73.5511C58.1293 73.8087 58.4304 74.1705 58.6463 74.6364H58.7372C58.9607 74.1856 59.2959 73.8277 59.7429 73.5625C60.1899 73.2936 60.7259 73.1591 61.3509 73.1591C62.1312 73.1591 62.7694 73.4034 63.2656 73.892C63.7618 74.3769 64.0099 75.1326 64.0099 76.1591V82H62.669V76.1591C62.669 75.5152 62.4929 75.0549 62.1406 74.7784C61.7884 74.5019 61.3736 74.3636 60.8963 74.3636C60.2827 74.3636 59.8073 74.5492 59.4702 74.9205C59.133 75.2879 58.9645 75.7538 58.9645 76.3182V82H57.6009V76.0227C57.6009 75.5265 57.4399 75.1269 57.1179 74.8239C56.7959 74.517 56.3812 74.3636 55.8736 74.3636C55.5251 74.3636 55.1993 74.4564 54.8963 74.642C54.5971 74.8277 54.3546 75.0852 54.169 75.4148C53.9872 75.7405 53.8963 76.1174 53.8963 76.5455V82H52.5554ZM69.0298 82.2045C68.4768 82.2045 67.9749 82.1004 67.5241 81.892C67.0734 81.6799 66.7154 81.375 66.4503 80.9773C66.1851 80.5758 66.0526 80.0909 66.0526 79.5227C66.0526 79.0227 66.151 78.6174 66.348 78.3068C66.545 77.9924 66.8082 77.7462 67.1378 77.5682C67.4673 77.3902 67.831 77.2576 68.2287 77.1705C68.6302 77.0795 69.0336 77.0076 69.4389 76.9545C69.9692 76.8864 70.3991 76.8352 70.7287 76.8011C71.062 76.7633 71.3045 76.7008 71.456 76.6136C71.6113 76.5265 71.6889 76.375 71.6889 76.1591V76.1136C71.6889 75.553 71.5355 75.1174 71.2287 74.8068C70.9257 74.4962 70.4654 74.3409 69.848 74.3409C69.2079 74.3409 68.706 74.4811 68.3423 74.7614C67.9787 75.0417 67.723 75.3409 67.5753 75.6591L66.3026 75.2045C66.5298 74.6742 66.8329 74.2614 67.2116 73.9659C67.5942 73.6667 68.0109 73.4583 68.4616 73.3409C68.9162 73.2197 69.3632 73.1591 69.8026 73.1591C70.0829 73.1591 70.4048 73.1932 70.7685 73.2614C71.1359 73.3258 71.4901 73.4602 71.831 73.6648C72.1757 73.8693 72.4616 74.178 72.6889 74.5909C72.9162 75.0038 73.0298 75.5568 73.0298 76.25V82H71.6889V80.8182H71.6207C71.5298 81.0076 71.3783 81.2102 71.1662 81.4261C70.9541 81.642 70.6719 81.8258 70.3196 81.9773C69.9673 82.1288 69.5374 82.2045 69.0298 82.2045ZM69.2344 81C69.7647 81 70.2116 80.8958 70.5753 80.6875C70.9427 80.4792 71.2192 80.2102 71.4048 79.8807C71.5942 79.5511 71.6889 79.2045 71.6889 78.8409V77.6136C71.6321 77.6818 71.5071 77.7443 71.3139 77.8011C71.1245 77.8542 70.9048 77.9015 70.6548 77.9432C70.4086 77.9811 70.1681 78.0152 69.9332 78.0455C69.7022 78.072 69.5147 78.0947 69.3707 78.1136C69.0223 78.1591 68.6965 78.233 68.3935 78.3352C68.0942 78.4337 67.8518 78.5833 67.6662 78.7841C67.4844 78.9811 67.3935 79.25 67.3935 79.5909C67.3935 80.0568 67.5658 80.4091 67.9105 80.6477C68.259 80.8826 68.7003 81 69.2344 81ZM79 85.4545C78.3523 85.4545 77.7955 85.3712 77.3295 85.2045C76.8636 85.0417 76.4754 84.8258 76.1648 84.5568C75.858 84.2917 75.6136 84.0076 75.4318 83.7045L76.5 82.9545C76.6212 83.1136 76.7746 83.2955 76.9602 83.5C77.1458 83.7083 77.3996 83.8883 77.7216 84.0398C78.0473 84.1951 78.4735 84.2727 79 84.2727C79.7045 84.2727 80.286 84.1023 80.7443 83.7614C81.2027 83.4205 81.4318 82.8864 81.4318 82.1591V80.3864H81.3182C81.2197 80.5455 81.0795 80.7424 80.8977 80.9773C80.7197 81.2083 80.4621 81.4148 80.125 81.5966C79.7917 81.7746 79.3409 81.8636 78.7727 81.8636C78.0682 81.8636 77.4356 81.697 76.875 81.3636C76.3182 81.0303 75.8769 80.5455 75.5511 79.9091C75.2292 79.2727 75.0682 78.5 75.0682 77.5909C75.0682 76.697 75.2254 75.9186 75.5398 75.2557C75.8542 74.589 76.2917 74.0739 76.8523 73.7102C77.4129 73.3428 78.0606 73.1591 78.7955 73.1591C79.3636 73.1591 79.8144 73.2538 80.1477 73.4432C80.4848 73.6288 80.7424 73.8409 80.9205 74.0795C81.1023 74.3144 81.2424 74.5076 81.3409 74.6591H81.4773V73.2727H82.7727V82.25C82.7727 83 82.6023 83.6098 82.2614 84.0795C81.9242 84.553 81.4697 84.8996 80.8977 85.1193C80.3295 85.3428 79.697 85.4545 79 85.4545ZM78.9545 80.6591C79.4924 80.6591 79.947 80.536 80.3182 80.2898C80.6894 80.0436 80.9716 79.6894 81.1648 79.2273C81.358 78.7652 81.4545 78.2121 81.4545 77.5682C81.4545 76.9394 81.3598 76.3845 81.1705 75.9034C80.9811 75.4223 80.7008 75.0455 80.3295 74.7727C79.9583 74.5 79.5 74.3636 78.9545 74.3636C78.3864 74.3636 77.9129 74.5076 77.5341 74.7955C77.1591 75.0833 76.8769 75.4697 76.6875 75.9545C76.5019 76.4394 76.4091 76.9773 76.4091 77.5682C76.4091 78.1742 76.5038 78.7102 76.6932 79.1761C76.8864 79.6383 77.1705 80.0019 77.5455 80.267C77.9242 80.5284 78.3939 80.6591 78.9545 80.6591ZM88.8864 82.1818C88.0455 82.1818 87.3201 81.9962 86.7102 81.625C86.1042 81.25 85.6364 80.7273 85.3068 80.0568C84.9811 79.3826 84.8182 78.5985 84.8182 77.7045C84.8182 76.8106 84.9811 76.0227 85.3068 75.3409C85.6364 74.6553 86.0947 74.1212 86.6818 73.7386C87.2727 73.3523 87.9621 73.1591 88.75 73.1591C89.2045 73.1591 89.6534 73.2348 90.0966 73.3864C90.5398 73.5379 90.9432 73.7841 91.3068 74.125C91.6705 74.4621 91.9602 74.9091 92.1761 75.4659C92.392 76.0227 92.5 76.7083 92.5 77.5227V78.0909H85.7727V76.9318H91.1364C91.1364 76.4394 91.0379 76 90.8409 75.6136C90.6477 75.2273 90.3712 74.9223 90.0114 74.6989C89.6553 74.4754 89.2348 74.3636 88.75 74.3636C88.2159 74.3636 87.7538 74.4962 87.3636 74.7614C86.9773 75.0227 86.6799 75.3636 86.4716 75.7841C86.2633 76.2045 86.1591 76.6553 86.1591 77.1364V77.9091C86.1591 78.5682 86.2727 79.1269 86.5 79.5852C86.7311 80.0398 87.0511 80.3864 87.4602 80.625C87.8693 80.8598 88.3447 80.9773 88.8864 80.9773C89.2386 80.9773 89.5568 80.928 89.8409 80.8295C90.1288 80.7273 90.3769 80.5758 90.5852 80.375C90.7936 80.1705 90.9545 79.9167 91.0682 79.6136L92.3636 79.9773C92.2273 80.4167 91.9981 80.803 91.6761 81.1364C91.3542 81.4659 90.9564 81.7235 90.483 81.9091C90.0095 82.0909 89.4773 82.1818 88.8864 82.1818Z" fill="black"/>
<path d="M31.6364 70.3636H32.1364V69.8636H31.6364V70.3636ZM31.6364 82V82.5H32.1364V82H31.6364ZM30.2727 82L29.862 82.2851L30.0111 82.5H30.2727V82ZM23.9318 72.8636L24.3426 72.5786L24.1934 72.3636H23.9318V72.8636ZM23.8182 72.8636V72.3636H23.3182V72.8636H23.8182ZM23.8182 82V82.5H24.3182V82H23.8182ZM22.4091 82H21.9091V82.5H22.4091V82ZM22.4091 70.3636V69.8636H21.9091V70.3636H22.4091ZM23.7727 70.3636L24.1833 70.0783L24.0342 69.8636H23.7727V70.3636ZM30.1364 79.5227L29.7257 79.808L29.8749 80.0227H30.1364V79.5227ZM30.25 79.5227V80.0227H30.75V79.5227H30.25ZM30.25 70.3636V69.8636H29.75V70.3636H30.25ZM31.1364 70.3636V82H32.1364V70.3636H31.1364ZM31.6364 81.5H30.2727V82.5H31.6364V81.5ZM30.6835 81.7149L24.3426 72.5786L23.5211 73.1487L29.862 82.2851L30.6835 81.7149ZM23.9318 72.3636H23.8182V73.3636H23.9318V72.3636ZM23.3182 72.8636V82H24.3182V72.8636H23.3182ZM23.8182 81.5H22.4091V82.5H23.8182V81.5ZM22.9091 82V70.3636H21.9091V82H22.9091ZM22.4091 70.8636H23.7727V69.8636H22.4091V70.8636ZM23.3621 70.6489L29.7257 79.808L30.547 79.2374L24.1833 70.0783L23.3621 70.6489ZM30.1364 80.0227H30.25V79.0227H30.1364V80.0227ZM30.75 79.5227V70.3636H29.75V79.5227H30.75ZM30.25 70.8636H31.6364V69.8636H30.25V70.8636ZM35.7457 81.6193L35.4778 82.0415L35.479 82.0423L35.7457 81.6193ZM34.3594 80.0455L33.9102 80.265L33.9112 80.267L34.3594 80.0455ZM34.3594 75.3011L33.9107 75.0805L33.9097 75.0826L34.3594 75.3011ZM35.7457 73.7216L35.479 73.2987L35.4778 73.2994L35.7457 73.7216ZM39.8878 73.7216L39.6199 74.1438L39.6211 74.1445L39.8878 73.7216ZM41.2741 75.3011L40.8244 75.5197L40.8254 75.5217L41.2741 75.3011ZM41.2741 80.0455L40.8259 79.8239L40.8249 79.8259L41.2741 80.0455ZM39.8878 81.6193L39.6211 81.1964L39.6199 81.1972L39.8878 81.6193ZM39.2969 80.517L38.9859 80.1255L38.9859 80.1255L39.2969 80.517ZM40.1548 79.3068L40.6236 79.4808L40.6236 79.4808L40.1548 79.3068ZM40.1548 76.0511L40.624 75.8783L40.624 75.8783L40.1548 76.0511ZM39.2969 74.8295L39.6102 74.4399L39.6102 74.4399L39.2969 74.8295ZM36.3423 74.8295L36.0291 74.4399L36.0291 74.4399L36.3423 74.8295ZM35.4844 76.0511L35.0152 75.8783L35.0152 75.8783L35.4844 76.0511ZM35.4844 79.3068L35.0156 79.4808L35.0156 79.4808L35.4844 79.3068ZM36.3423 80.517L36.6533 80.1255L36.6533 80.1255L36.3423 80.517ZM37.8196 81.6818C37.1144 81.6818 36.5179 81.5151 36.0124 81.1964L35.479 82.0423C36.163 82.4735 36.9491 82.6818 37.8196 82.6818V81.6818ZM36.0137 81.1972C35.5059 80.8749 35.1035 80.4224 34.8076 79.8239L33.9112 80.267C34.2819 81.017 34.8038 81.6137 35.4778 82.0415L36.0137 81.1972ZM34.8086 79.8259C34.5185 79.2324 34.3651 78.5224 34.3651 77.6818H33.3651C33.3651 78.6443 33.5411 79.51 33.9102 80.265L34.8086 79.8259ZM34.3651 77.6818C34.3651 76.8331 34.5188 76.117 34.8091 75.5197L33.9097 75.0826C33.5409 75.8413 33.3651 76.7124 33.3651 77.6818H34.3651ZM34.8081 75.5217C35.1042 74.9194 35.5066 74.4656 36.0137 74.1438L35.4778 73.2994C34.8031 73.7276 34.2812 74.3268 33.9107 75.0805L34.8081 75.5217ZM36.0124 74.1445C36.5179 73.8258 37.1144 73.6591 37.8196 73.6591V72.6591C36.9491 72.6591 36.163 72.8674 35.479 73.2987L36.0124 74.1445ZM37.8196 73.6591C38.5249 73.6591 39.1188 73.8258 39.6199 74.1438L40.1557 73.2994C39.4749 72.8674 38.6901 72.6591 37.8196 72.6591V73.6591ZM39.6211 74.1445C40.1312 74.4662 40.5326 74.9192 40.8245 75.5197L41.7238 75.0826C41.3566 74.327 40.8338 73.727 40.1545 73.2987L39.6211 74.1445ZM40.8254 75.5217C41.1189 76.1186 41.2741 76.8339 41.2741 77.6818H42.2741C42.2741 76.7116 42.0961 75.8398 41.7229 75.0805L40.8254 75.5217ZM41.2741 77.6818C41.2741 78.5216 41.1191 79.2309 40.8259 79.8239L41.7224 80.267C42.0959 79.5115 42.2741 78.6451 42.2741 77.6818H41.2741ZM40.8249 79.8259C40.5333 80.4226 40.1319 80.8743 39.6211 81.1964L40.1545 82.0423C40.8331 81.6144 41.3559 81.0168 41.7234 80.265L40.8249 79.8259ZM39.6199 81.1972C39.1188 81.5151 38.5249 81.6818 37.8196 81.6818V82.6818C38.6901 82.6818 39.4749 82.4735 40.1557 82.0415L39.6199 81.1972ZM37.8196 81.4773C38.5062 81.4773 39.1154 81.2997 39.6078 80.9086L38.9859 80.1255C38.7057 80.3481 38.33 80.4773 37.8196 80.4773V81.4773ZM39.6078 80.9086C40.0714 80.5404 40.4089 80.0592 40.6236 79.4808L39.6861 79.1328C39.5296 79.5544 39.2951 79.88 38.9859 80.1255L39.6078 80.9086ZM40.6236 79.4808C40.8317 78.9201 40.9332 78.319 40.9332 77.6818H39.9332C39.9332 78.2113 39.8492 78.6935 39.6861 79.1328L40.6236 79.4808ZM40.9332 77.6818C40.9332 77.0446 40.8317 76.442 40.624 75.8783L39.6857 76.224C39.8492 76.6678 39.9332 77.1524 39.9332 77.6818H40.9332ZM40.624 75.8783C40.4097 75.2967 40.073 74.812 39.6102 74.4399L38.9836 75.2192C39.2935 75.4683 39.5287 75.798 39.6857 76.224L40.624 75.8783ZM39.6102 74.4399C39.1176 74.0439 38.5076 73.8636 37.8196 73.8636V74.8636C38.3286 74.8636 38.7034 74.994 38.9836 75.2192L39.6102 74.4399ZM37.8196 73.8636C37.1316 73.8636 36.5216 74.0439 36.0291 74.4399L36.6556 75.2192C36.9358 74.994 37.3106 74.8636 37.8196 74.8636V73.8636ZM36.0291 74.4399C35.5662 74.812 35.2295 75.2967 35.0152 75.8783L35.9535 76.224C36.1105 75.798 36.3457 75.4683 36.6556 75.2192L36.0291 74.4399ZM35.0152 75.8783C34.8075 76.442 34.706 77.0446 34.706 77.6818H35.706C35.706 77.1524 35.79 76.6678 35.9535 76.224L35.0152 75.8783ZM34.706 77.6818C34.706 78.319 34.8075 78.9201 35.0156 79.4808L35.9531 79.1328C35.79 78.6935 35.706 78.2113 35.706 77.6818H34.706ZM35.0156 79.4808C35.2303 80.0592 35.5678 80.5404 36.0314 80.9086L36.6533 80.1255C36.3442 79.88 36.1096 79.5544 35.9531 79.1328L35.0156 79.4808ZM36.0314 80.9086C36.5238 81.2997 37.133 81.4773 37.8196 81.4773V80.4773C37.3092 80.4773 36.9335 80.3481 36.6533 80.1255L36.0314 80.9086ZM49.9119 70.3636H50.4119V69.8636H49.9119V70.3636ZM49.9119 82V82.5H50.4119V82H49.9119ZM48.5028 82H48.0028V82.5H48.5028V82ZM48.5028 70.3636V69.8636H48.0028V70.3636H48.5028ZM49.4119 70.3636V82H50.4119V70.3636H49.4119ZM49.9119 81.5H48.5028V82.5H49.9119V81.5ZM49.0028 82V70.3636H48.0028V82H49.0028ZM48.5028 70.8636H49.9119V69.8636H48.5028V70.8636ZM52.5554 82H52.0554V82.5H52.5554V82ZM52.5554 73.2727V72.7727H52.0554V73.2727H52.5554ZM53.8509 73.2727H54.3509V72.7727H53.8509V73.2727ZM53.8509 74.6364H53.3509V75.1364H53.8509V74.6364ZM53.9645 74.6364V75.1364H54.3061L54.4303 74.8181L53.9645 74.6364ZM54.8452 73.5511L55.1134 73.9731L55.1161 73.9713L54.8452 73.5511ZM57.7429 73.5511L57.4608 73.964L57.4655 73.9672L57.7429 73.5511ZM58.6463 74.6364L58.1927 74.8466L58.3269 75.1364H58.6463V74.6364ZM58.7372 74.6364V75.1364H59.0474L59.1852 74.8585L58.7372 74.6364ZM59.7429 73.5625L59.998 73.9925L60.0007 73.9909L59.7429 73.5625ZM63.2656 73.892L62.9148 74.2483L62.9162 74.2497L63.2656 73.892ZM64.0099 82V82.5H64.5099V82H64.0099ZM62.669 82H62.169V82.5H62.669V82ZM62.1406 74.7784L61.8319 75.1717L61.8319 75.1717L62.1406 74.7784ZM59.4702 74.9205L59.8386 75.2585L59.8403 75.2566L59.4702 74.9205ZM58.9645 82V82.5H59.4645V82H58.9645ZM57.6009 82H57.1009V82.5H57.6009V82ZM57.1179 74.8239L56.773 75.1858L56.7752 75.188L57.1179 74.8239ZM54.8963 74.642L54.6351 74.2157L54.6328 74.2171L54.8963 74.642ZM54.169 75.4148L53.7334 75.1694L53.7324 75.1711L54.169 75.4148ZM53.8963 82V82.5H54.3963V82H53.8963ZM53.0554 82V73.2727H52.0554V82H53.0554ZM52.5554 73.7727H53.8509V72.7727H52.5554V73.7727ZM53.3509 73.2727V74.6364H54.3509V73.2727H53.3509ZM53.8509 75.1364H53.9645V74.1364H53.8509V75.1364ZM54.4303 74.8181C54.5752 74.4469 54.8017 74.1712 55.1134 73.9731L54.577 73.1291C54.0781 73.4462 53.7175 73.894 53.4987 74.4546L54.4303 74.8181ZM55.1161 73.9713C55.4272 73.7708 55.8159 73.6591 56.3054 73.6591V72.6591C55.6585 72.6591 55.0738 72.8088 54.5742 73.1309L55.1161 73.9713ZM56.3054 73.6591C56.8051 73.6591 57.1796 73.7718 57.4608 73.964L58.0249 73.1383C57.5411 72.8077 56.9572 72.6591 56.3054 72.6591V73.6591ZM57.4655 73.9672C57.7674 74.1684 58.0112 74.4551 58.1927 74.8466L59.1 74.4261C58.8496 73.8858 58.4912 73.449 58.0202 73.1351L57.4655 73.9672ZM58.6463 75.1364H58.7372V74.1364H58.6463V75.1364ZM59.1852 74.8585C59.3643 74.4971 59.6311 74.2102 59.998 73.9925L59.4878 73.1325C58.9607 73.4452 58.5571 73.8741 58.2893 74.4143L59.1852 74.8585ZM60.0007 73.9909C60.3557 73.7773 60.7986 73.6591 61.3509 73.6591V72.6591C60.6531 72.6591 60.0241 72.8098 59.4851 73.1341L60.0007 73.9909ZM61.3509 73.6591C62.0171 73.6591 62.5237 73.8632 62.9148 74.2483L63.6164 73.5358C63.0151 72.9436 62.2452 72.6591 61.3509 72.6591V73.6591ZM62.9162 74.2497C63.2782 74.6034 63.5099 75.2028 63.5099 76.1591H64.5099C64.5099 75.0623 64.2455 74.1504 63.6151 73.5344L62.9162 74.2497ZM63.5099 76.1591V82H64.5099V76.1591H63.5099ZM64.0099 81.5H62.669V82.5H64.0099V81.5ZM63.169 82V76.1591H62.169V82H63.169ZM63.169 76.1591C63.169 75.4319 62.9686 74.7927 62.4493 74.3851L61.8319 75.1717C62.0172 75.3172 62.169 75.5984 62.169 76.1591H63.169ZM62.4493 74.3851C62.003 74.0348 61.4777 73.8636 60.8963 73.8636V74.8636C61.2695 74.8636 61.5737 74.969 61.8319 75.1717L62.4493 74.3851ZM60.8963 73.8636C60.1758 73.8636 59.5526 74.0859 59.1 74.5843L59.8403 75.2566C60.062 75.0125 60.3896 74.8636 60.8963 74.8636V73.8636ZM59.1018 74.5824C58.6687 75.0544 58.4645 75.6464 58.4645 76.3182H59.4645C59.4645 75.8612 59.5974 75.5214 59.8386 75.2585L59.1018 74.5824ZM58.4645 76.3182V82H59.4645V76.3182H58.4645ZM58.9645 81.5H57.6009V82.5H58.9645V81.5ZM58.1009 82V76.0227H57.1009V82H58.1009ZM58.1009 76.0227C58.1009 75.4072 57.8957 74.8693 57.4606 74.4598L56.7752 75.188C56.984 75.3845 57.1009 75.6458 57.1009 76.0227H58.1009ZM57.4628 74.4619C57.0346 74.0538 56.49 73.8636 55.8736 73.8636V74.8636C56.2723 74.8636 56.5572 74.9803 56.773 75.1858L57.4628 74.4619ZM55.8736 73.8636C55.431 73.8636 55.0151 73.9829 54.6352 74.2157L55.1575 75.0684C55.3835 74.93 55.6192 74.8636 55.8736 74.8636V73.8636ZM54.6328 74.2171C54.2567 74.4504 53.9572 74.7721 53.7334 75.1694L54.6047 75.6601C54.7521 75.3984 54.9375 75.2049 55.1599 75.0669L54.6328 74.2171ZM53.7324 75.1711C53.5033 75.5817 53.3963 76.0448 53.3963 76.5455H54.3963C54.3963 76.19 54.4712 75.8994 54.6056 75.6585L53.7324 75.1711ZM53.3963 76.5455V82H54.3963V76.5455H53.3963ZM53.8963 81.5H52.5554V82.5H53.8963V81.5ZM67.5241 81.892L67.3112 82.3445L67.3144 82.3459L67.5241 81.892ZM66.4503 80.9773L66.033 81.2528L66.0343 81.2546L66.4503 80.9773ZM66.348 78.3068L66.7703 78.5746L66.7717 78.5723L66.348 78.3068ZM68.2287 77.1705L68.3357 77.6589L68.3391 77.6581L68.2287 77.1705ZM69.4389 76.9545L69.3752 76.4586L69.3741 76.4588L69.4389 76.9545ZM70.7287 76.8011L70.7801 77.2985L70.7851 77.2979L70.7287 76.8011ZM71.456 76.6136L71.2113 76.1775L71.2067 76.1802L71.456 76.6136ZM71.2287 74.8068L70.8708 75.156L70.873 75.1582L71.2287 74.8068ZM68.3423 74.7614L68.6476 75.1574L68.6476 75.1574L68.3423 74.7614ZM67.5753 75.6591L67.4071 76.13L67.8367 76.2834L68.0288 75.8696L67.5753 75.6591ZM66.3026 75.2045L65.843 75.0076L65.6334 75.4965L66.1344 75.6754L66.3026 75.2045ZM67.2116 73.9659L67.5192 74.3602L67.5197 74.3597L67.2116 73.9659ZM68.4616 73.3409L68.5877 73.8248L68.5905 73.824L68.4616 73.3409ZM70.7685 73.2614L70.6763 73.7528L70.6822 73.7539L70.7685 73.2614ZM71.831 73.6648L71.5737 74.0935L71.5758 74.0948L71.831 73.6648ZM72.6889 74.5909L72.2509 74.832L72.2509 74.832L72.6889 74.5909ZM73.0298 82V82.5H73.5298V82H73.0298ZM71.6889 82H71.1889V82.5H71.6889V82ZM71.6889 80.8182H72.1889V80.3182H71.6889V80.8182ZM71.6207 80.8182V80.3182H71.3061L71.17 80.6018L71.6207 80.8182ZM71.1662 81.4261L71.5229 81.7765L71.5229 81.7765L71.1662 81.4261ZM70.3196 81.9773L70.122 81.518L70.122 81.518L70.3196 81.9773ZM70.5753 80.6875L70.3287 80.2525L70.3267 80.2537L70.5753 80.6875ZM71.4048 79.8807L70.9713 79.6315L70.9692 79.6353L71.4048 79.8807ZM71.6889 77.6136H72.1889V76.2326L71.3048 77.2935L71.6889 77.6136ZM71.3139 77.8011L71.4487 78.2827L71.455 78.2808L71.3139 77.8011ZM70.6548 77.9432L70.7309 78.4374L70.737 78.4364L70.6548 77.9432ZM69.9332 78.0455L69.9902 78.5422L69.9972 78.5413L69.9332 78.0455ZM69.3707 78.1136L69.4354 78.6094L69.436 78.6094L69.3707 78.1136ZM68.3935 78.3352L68.5498 78.8102L68.5534 78.809L68.3935 78.3352ZM67.6662 78.7841L67.2991 78.4447L67.2988 78.445L67.6662 78.7841ZM67.9105 80.6477L67.6259 81.0589L67.6311 81.0624L67.9105 80.6477ZM69.0298 81.7045C68.5409 81.7045 68.1118 81.6128 67.7339 81.4382L67.3144 82.3459C67.838 82.5879 68.4127 82.7045 69.0298 82.7045V81.7045ZM67.737 81.4396C67.365 81.2646 67.0788 81.0186 66.8663 80.6999L66.0343 81.2546C66.3521 81.7314 66.7817 82.0953 67.3112 82.3445L67.737 81.4396ZM66.8675 80.7017C66.6655 80.3958 66.5526 80.011 66.5526 79.5227H65.5526C65.5526 80.1708 65.7048 80.7557 66.0331 81.2528L66.8675 80.7017ZM66.5526 79.5227C66.5526 79.0845 66.6393 78.7812 66.7703 78.5746L65.9258 78.039C65.6628 78.4537 65.5526 78.9609 65.5526 79.5227H66.5526ZM66.7717 78.5723C66.9223 78.3319 67.1212 78.1454 67.3754 78.0081L66.9001 77.1283C66.4953 77.347 66.1676 77.653 65.9243 78.0414L66.7717 78.5723ZM67.3754 78.0081C67.6605 77.8541 67.9796 77.7369 68.3357 77.6589L68.1217 76.682C67.6823 76.7783 67.2742 76.9262 66.9001 77.1283L67.3754 78.0081ZM68.3391 77.6581C68.7257 77.5706 69.1139 77.5013 69.5038 77.4503L69.3741 76.4588C68.9533 76.5138 68.5347 76.5885 68.1183 76.6828L68.3391 77.6581ZM69.5027 77.4505C70.031 77.3825 70.4564 77.332 70.7801 77.2985L70.6772 76.3038C70.3419 76.3385 69.9074 76.3902 69.3752 76.4586L69.5027 77.4505ZM70.7851 77.2979C71.1354 77.2581 71.462 77.1869 71.7052 77.0471L71.2067 76.1802C71.1469 76.2146 70.9886 76.2684 70.6722 76.3043L70.7851 77.2979ZM71.7006 77.0497C72.0496 76.8539 72.1889 76.5104 72.1889 76.1591H71.1889C71.1889 76.2085 71.18 76.2178 71.1857 76.2066C71.1886 76.2009 71.1935 76.1937 71.2001 76.187C71.2032 76.1838 71.2059 76.1814 71.2081 76.1798C71.2103 76.1781 71.2115 76.1775 71.2113 76.1776L71.7006 77.0497ZM72.1889 76.1591V76.1136H71.1889V76.1591H72.1889ZM72.1889 76.1136C72.1889 75.4605 72.0079 74.8842 71.5844 74.4554L70.873 75.1582C71.0631 75.3507 71.1889 75.6455 71.1889 76.1136H72.1889ZM71.5866 74.4577C71.1556 74.0159 70.5425 73.8409 69.848 73.8409V74.8409C70.3884 74.8409 70.6957 74.9765 70.8708 75.156L71.5866 74.4577ZM69.848 73.8409C69.1401 73.8409 68.5169 73.9955 68.0371 74.3654L68.6476 75.1574C68.8951 74.9666 69.2756 74.8409 69.848 74.8409V73.8409ZM68.0371 74.3654C67.6288 74.6801 67.3121 75.0386 67.1218 75.4485L68.0288 75.8696C68.1339 75.6433 68.3286 75.4033 68.6476 75.1574L68.0371 74.3654ZM67.7435 75.1882L66.4707 74.7337L66.1344 75.6754L67.4071 76.13L67.7435 75.1882ZM66.7621 75.4015C66.9628 74.9332 67.2191 74.5942 67.5192 74.3602L66.9041 73.5717C66.4467 73.9285 66.0968 74.4153 65.843 75.0076L66.7621 75.4015ZM67.5197 74.3597C67.8508 74.1008 68.2059 73.9242 68.5877 73.8248L68.3356 72.8571C67.8158 72.9925 67.3377 73.2325 66.9036 73.5721L67.5197 74.3597ZM68.5905 73.824C69.006 73.7132 69.4096 73.6591 69.8026 73.6591V72.6591C69.3167 72.6591 68.8264 72.7262 68.3328 72.8578L68.5905 73.824ZM69.8026 73.6591C70.044 73.6591 70.3341 73.6886 70.6763 73.7528L70.8606 72.7699C70.4756 72.6977 70.1218 72.6591 69.8026 72.6591V73.6591ZM70.6822 73.7539C70.9853 73.807 71.2819 73.9184 71.5737 74.0935L72.0882 73.236C71.6982 73.002 71.2865 72.8445 70.8548 72.7689L70.6822 73.7539ZM71.5758 74.0948C71.8312 74.2463 72.059 74.4834 72.2509 74.832L73.1269 74.3498C72.8643 73.8726 72.5201 73.4923 72.0861 73.2348L71.5758 74.0948ZM72.2509 74.832C72.4228 75.1444 72.5298 75.6042 72.5298 76.25H73.5298C73.5298 75.5094 73.4096 74.8632 73.1269 74.3498L72.2509 74.832ZM72.5298 76.25V82H73.5298V76.25H72.5298ZM73.0298 81.5H71.6889V82.5H73.0298V81.5ZM72.1889 82V80.8182H71.1889V82H72.1889ZM71.6889 80.3182H71.6207V81.3182H71.6889V80.3182ZM71.17 80.6018C71.1108 80.7251 70.9986 80.8833 70.8095 81.0757L71.5229 81.7765C71.758 81.5372 71.9488 81.2901 72.0715 81.0345L71.17 80.6018ZM70.8095 81.0757C70.6532 81.2348 70.43 81.3855 70.122 81.518L70.5172 82.4366C70.9137 82.266 71.2549 82.0493 71.5229 81.7765L70.8095 81.0757ZM70.122 81.518C69.8489 81.6355 69.4903 81.7045 69.0298 81.7045V82.7045C69.5845 82.7045 70.0858 82.6221 70.5172 82.4366L70.122 81.518ZM69.2344 81.5C69.8291 81.5 70.367 81.3831 70.8238 81.1213L70.3267 80.2537C70.0563 80.4086 69.7002 80.5 69.2344 80.5V81.5ZM70.8219 81.1224C71.2589 80.8747 71.6052 80.5438 71.8405 80.126L70.9692 79.6353C70.8332 79.8767 70.6265 80.0837 70.3287 80.2526L70.8219 81.1224ZM71.8383 80.1298C72.0692 79.728 72.1889 79.296 72.1889 78.8409H71.1889C71.1889 79.1131 71.1192 79.3742 70.9713 79.6315L71.8383 80.1298ZM72.1889 78.8409V77.6136H71.1889V78.8409H72.1889ZM71.3048 77.2935C71.3236 77.271 71.3386 77.2599 71.3417 77.2577C71.3451 77.2553 71.342 77.2579 71.329 77.2644C71.3017 77.2781 71.2523 77.2981 71.1728 77.3215L71.455 78.2808C71.5688 78.2474 71.6784 78.2077 71.7762 78.1589C71.8688 78.1126 71.9824 78.0425 72.073 77.9337L71.3048 77.2935ZM71.1791 77.3197C71.0111 77.3667 70.8097 77.4105 70.5726 77.45L70.737 78.4364C71 78.3926 71.2379 78.3416 71.4487 78.2826L71.1791 77.3197ZM70.5788 77.449C70.3364 77.4863 70.0999 77.5198 69.8693 77.5496L69.9972 78.5413C70.2363 78.5105 70.4808 78.4758 70.7309 78.4374L70.5788 77.449ZM69.8762 77.5487C69.6438 77.5754 69.4533 77.5985 69.3055 77.6179L69.436 78.6094C69.576 78.5909 69.7605 78.5686 69.9902 78.5422L69.8762 77.5487ZM69.3061 77.6178C68.9283 77.6671 68.5704 77.7478 68.2336 77.8615L68.5534 78.809C68.8226 78.7181 69.1162 78.6511 69.4354 78.6094L69.3061 77.6178ZM68.2372 77.8603C67.8697 77.9812 67.5506 78.1726 67.2991 78.4447L68.0333 79.1235C68.153 78.994 68.3188 78.8862 68.5498 78.8102L68.2372 77.8603ZM67.2988 78.445C67.0104 78.7574 66.8935 79.1597 66.8935 79.5909H67.8935C67.8935 79.3403 67.9584 79.2047 68.0336 79.1232L67.2988 78.445ZM66.8935 79.5909C66.8935 80.1996 67.1297 80.7153 67.6259 81.0588L68.1951 80.2366C68.002 80.1029 67.8935 79.9141 67.8935 79.5909H66.8935ZM67.6311 81.0624C68.0819 81.3662 68.6276 81.5 69.2344 81.5V80.5C68.7729 80.5 68.4361 80.399 68.1899 80.2331L67.6311 81.0624ZM77.3295 85.2045L77.498 84.7337L77.4945 84.7326L77.3295 85.2045ZM76.1648 84.5568L76.4921 84.1788L76.4917 84.1785L76.1648 84.5568ZM75.4318 83.7045L75.1445 83.2953L74.7636 83.5627L75.0031 83.9618L75.4318 83.7045ZM76.5 82.9545L76.8977 82.6515L76.6063 82.269L76.2127 82.5453L76.5 82.9545ZM76.9602 83.5L77.3336 83.1674L77.3305 83.164L76.9602 83.5ZM77.7216 84.0398L77.9368 83.5884L77.9345 83.5874L77.7216 84.0398ZM80.7443 83.7614L81.0427 84.1626L81.0427 84.1626L80.7443 83.7614ZM81.4318 80.3864H81.9318V79.8864H81.4318V80.3864ZM81.3182 80.3864V79.8864H81.0397L80.893 80.1232L81.3182 80.3864ZM80.8977 80.9773L80.5024 80.6712L80.5017 80.6721L80.8977 80.9773ZM80.125 81.5966L80.3606 82.0376L80.3623 82.0367L80.125 81.5966ZM76.875 81.3636L76.6182 81.7926L76.6195 81.7934L76.875 81.3636ZM75.5511 79.9091L75.105 80.1348L75.1061 80.1369L75.5511 79.9091ZM75.5398 75.2557L75.9915 75.4699L75.992 75.469L75.5398 75.2557ZM76.8523 73.7102L77.1244 74.1297L77.1264 74.1284L76.8523 73.7102ZM80.1477 73.4432L79.9007 73.8779L79.9066 73.8812L80.1477 73.4432ZM80.9205 74.0795L80.5196 74.3786L80.5251 74.3856L80.9205 74.0795ZM81.3409 74.6591L80.9217 74.9316L81.0696 75.1591H81.3409V74.6591ZM81.4773 74.6591V75.1591H81.9773V74.6591H81.4773ZM81.4773 73.2727V72.7727H80.9773V73.2727H81.4773ZM82.7727 73.2727H83.2727V72.7727H82.7727V73.2727ZM82.2614 84.0795L81.8567 83.7858L81.8541 83.7895L82.2614 84.0795ZM80.8977 85.1193L80.7184 84.6526L80.7147 84.654L80.8977 85.1193ZM80.3182 80.2898L80.0418 79.8731L80.0418 79.8731L80.3182 80.2898ZM81.1648 79.2273L81.6261 79.4201L81.6261 79.4201L81.1648 79.2273ZM81.1705 75.9034L81.6357 75.7202L81.6357 75.7202L81.1705 75.9034ZM80.3295 74.7727L80.0335 75.1757L80.0335 75.1757L80.3295 74.7727ZM77.5341 74.7955L77.2315 74.3974L77.2296 74.3988L77.5341 74.7955ZM76.6875 75.9545L76.2218 75.7726L76.2205 75.7758L76.6875 75.9545ZM76.6932 79.1761L76.23 79.3644L76.2319 79.369L76.6932 79.1761ZM77.5455 80.267L77.2568 80.6753L77.2615 80.6786L77.5455 80.267ZM79 84.9545C78.3929 84.9545 77.896 84.8762 77.498 84.7338L77.1611 85.6753C77.6949 85.8663 78.3116 85.9545 79 85.9545V84.9545ZM77.4945 84.7326C77.0765 84.5864 76.7464 84.3991 76.4921 84.1788L75.8375 84.9348C76.2043 85.2524 76.6508 85.4969 77.1645 85.6765L77.4945 84.7326ZM76.4917 84.1785C76.2192 83.943 76.0114 83.6987 75.8606 83.4473L75.0031 83.9618C75.2159 84.3165 75.4967 84.6403 75.8378 84.9351L76.4917 84.1785ZM75.7191 84.1138L76.7873 83.3638L76.2127 82.5453L75.1445 83.2953L75.7191 84.1138ZM76.1023 83.2576C76.2347 83.4314 76.3981 83.6245 76.5899 83.836L77.3305 83.164C77.1512 82.9664 77.0077 82.7959 76.8977 82.6515L76.1023 83.2576ZM76.5869 83.8326C76.8279 84.1031 77.1419 84.3196 77.5087 84.4922L77.9345 83.5874C77.6574 83.457 77.4638 83.3136 77.3336 83.1674L76.5869 83.8326ZM77.5064 84.4911C77.923 84.6897 78.4306 84.7727 79 84.7727V83.7727C78.5164 83.7727 78.1717 83.7005 77.9368 83.5884L77.5064 84.4911ZM79 84.7727C79.7865 84.7727 80.4797 84.5814 81.0427 84.1626L80.4459 83.3602C80.0923 83.6232 79.6226 83.7727 79 83.7727V84.7727ZM81.0427 84.1626C81.6618 83.7021 81.9318 82.9968 81.9318 82.1591H80.9318C80.9318 82.776 80.7435 83.1388 80.4459 83.3602L81.0427 84.1626ZM81.9318 82.1591V80.3864H80.9318V82.1591H81.9318ZM81.4318 79.8864H81.3182V80.8864H81.4318V79.8864ZM80.893 80.1232C80.8074 80.2615 80.6789 80.4431 80.5024 80.6712L81.2931 81.2834C81.4802 81.0417 81.632 80.8294 81.7433 80.6495L80.893 80.1232ZM80.5017 80.6721C80.3777 80.833 80.1814 80.9981 79.8877 81.1565L80.3623 82.0367C80.7428 81.8315 81.0617 81.5836 81.2938 81.2824L80.5017 80.6721ZM79.8894 81.1556C79.656 81.2802 79.2968 81.3636 78.7727 81.3636V82.3636C79.3851 82.3636 79.9273 82.269 80.3606 82.0376L79.8894 81.1556ZM78.7727 81.3636C78.1507 81.3636 77.6077 81.2176 77.1305 80.9339L76.6195 81.7934C77.2636 82.1764 77.9857 82.3636 78.7727 82.3636V81.3636ZM77.1318 80.9346C76.6634 80.6542 76.2838 80.243 75.9962 79.6813L75.1061 80.1369C75.47 80.8479 75.973 81.4064 76.6182 81.7926L77.1318 80.9346ZM75.9973 79.6834C75.7191 79.1335 75.5682 78.4425 75.5682 77.5909H74.5682C74.5682 78.5575 74.7392 79.4119 75.105 80.1348L75.9973 79.6834ZM75.5682 77.5909C75.5682 76.7552 75.7151 76.0529 75.9915 75.4699L75.088 75.0414C74.7357 75.7843 74.5682 76.6387 74.5682 77.5909H75.5682ZM75.992 75.469C76.2709 74.8775 76.6497 74.4376 77.1244 74.1297L76.5802 73.2907C75.9336 73.7102 75.4374 74.3005 75.0875 75.0424L75.992 75.469ZM77.1264 74.1284C77.5977 73.8195 78.1482 73.6591 78.7955 73.6591V72.6591C77.973 72.6591 77.228 72.8661 76.5782 73.292L77.1264 74.1284ZM78.7955 73.6591C79.3158 73.6591 79.6704 73.7471 79.9007 73.8779L80.3947 73.0085C79.9584 72.7605 79.4115 72.6591 78.7955 72.6591V73.6591ZM79.9066 73.8812C80.1987 74.042 80.3949 74.2112 80.5197 74.3785L81.3212 73.7806C81.09 73.4706 80.771 73.2155 80.3889 73.0052L79.9066 73.8812ZM80.5251 74.3856C80.7031 74.6156 80.8339 74.7965 80.9217 74.9316L81.7601 74.3866C81.651 74.2186 81.5014 74.0132 81.3158 73.7735L80.5251 74.3856ZM81.3409 75.1591H81.4773V74.1591H81.3409V75.1591ZM81.9773 74.6591V73.2727H80.9773V74.6591H81.9773ZM81.4773 73.7727H82.7727V72.7727H81.4773V73.7727ZM82.2727 73.2727V82.25H83.2727V73.2727H82.2727ZM82.2727 82.25C82.2727 82.9253 82.1197 83.4235 81.8567 83.7858L82.666 84.3732C83.0848 83.7962 83.2727 83.0747 83.2727 82.25H82.2727ZM81.8541 83.7895C81.5771 84.1785 81.2039 84.4661 80.7184 84.6526L81.077 85.5861C81.7355 85.3332 82.2714 84.9275 82.6687 84.3695L81.8541 83.7895ZM80.7147 84.654C80.2125 84.8516 79.6431 84.9545 79 84.9545V85.9545C79.7508 85.9545 80.4466 85.834 81.0807 85.5846L80.7147 84.654ZM78.9545 81.1591C79.5701 81.1591 80.1257 81.0174 80.5946 80.7065L80.0418 79.8731C79.7682 80.0546 79.4148 80.1591 78.9545 80.1591V81.1591ZM80.5946 80.7065C81.0582 80.3989 81.3997 79.9617 81.6261 79.4201L80.7035 79.0344C80.5435 79.417 80.3206 79.6882 80.0418 79.8731L80.5946 80.7065ZM81.6261 79.4201C81.851 78.8822 81.9545 78.2602 81.9545 77.5682H80.9545C80.9545 78.164 80.8649 78.6481 80.7035 79.0344L81.6261 79.4201ZM81.9545 77.5682C81.9545 76.8899 81.8524 76.2708 81.6357 75.7202L80.7052 76.0866C80.8673 76.4982 80.9545 76.9889 80.9545 77.5682H81.9545ZM81.6357 75.7202C81.4161 75.1625 81.0818 74.705 80.6256 74.3698L80.0335 75.1757C80.3197 75.3859 80.546 75.6822 80.7052 76.0866L81.6357 75.7202ZM80.6256 74.3698C80.1536 74.023 79.5863 73.8636 78.9545 73.8636V74.8636C79.4137 74.8636 79.7631 74.977 80.0335 75.1757L80.6256 74.3698ZM78.9545 73.8636C78.299 73.8636 77.7133 74.0312 77.2315 74.3974L77.8366 75.1935C78.1125 74.9839 78.4737 74.8636 78.9545 74.8636V73.8636ZM77.2296 74.3988C76.7751 74.7478 76.4409 75.2117 76.2218 75.7726L77.1532 76.1365C77.3129 75.7277 77.5431 75.4189 77.8386 75.1921L77.2296 74.3988ZM76.2205 75.7758C76.0103 76.325 75.9091 76.9245 75.9091 77.5682H76.9091C76.9091 77.03 76.9935 76.5538 77.1545 76.1333L76.2205 75.7758ZM75.9091 77.5682C75.9091 78.2259 76.0119 78.8278 76.23 79.3644L77.1564 78.9878C76.9957 78.5926 76.9091 78.1226 76.9091 77.5682H75.9091ZM76.2319 79.369C76.4578 79.9095 76.7983 80.3511 77.2568 80.6753L77.8341 79.8588C77.5426 79.6527 77.3149 79.367 77.1545 78.9833L76.2319 79.369ZM77.2615 80.6786C77.7405 81.0091 78.3149 81.1591 78.9545 81.1591V80.1591C78.4729 80.1591 78.108 80.0477 77.8294 79.8555L77.2615 80.6786ZM86.7102 81.625L86.4471 82.0502L86.4503 82.0521L86.7102 81.625ZM85.3068 80.0568L84.8566 80.2743L84.8581 80.2774L85.3068 80.0568ZM85.3068 75.3409L84.8562 75.1243L84.8557 75.1254L85.3068 75.3409ZM86.6818 73.7386L86.9548 74.1575L86.9554 74.1571L86.6818 73.7386ZM90.0966 73.3864L90.2583 72.9132L90.2583 72.9132L90.0966 73.3864ZM91.3068 74.125L90.9648 74.4898L90.9669 74.4917L91.3068 74.125ZM92.1761 75.4659L92.6423 75.2851L92.6423 75.2851L92.1761 75.4659ZM92.5 78.0909V78.5909H93V78.0909H92.5ZM85.7727 78.0909H85.2727V78.5909H85.7727V78.0909ZM85.7727 76.9318V76.4318H85.2727V76.9318H85.7727ZM91.1364 76.9318V77.4318H91.6364V76.9318H91.1364ZM90.8409 75.6136L90.3937 75.8372L90.3955 75.8407L90.8409 75.6136ZM90.0114 74.6989L89.7456 75.1224L89.7476 75.1236L90.0114 74.6989ZM87.3636 74.7614L87.6438 75.1755L87.6447 75.1749L87.3636 74.7614ZM86.4716 75.7841L86.0236 75.5621L86.0236 75.5621L86.4716 75.7841ZM86.5 79.5852L86.052 79.8074L86.0543 79.8118L86.5 79.5852ZM87.4602 80.625L87.2083 81.0569L87.2113 81.0586L87.4602 80.625ZM89.8409 80.8295L90.0047 81.302L90.0083 81.3007L89.8409 80.8295ZM90.5852 80.375L90.9322 80.7351L90.9355 80.7318L90.5852 80.375ZM91.0682 79.6136L91.2033 79.1322L90.7612 79.0082L90.6 79.4381L91.0682 79.6136ZM92.3636 79.9773L92.8412 80.1255L92.9935 79.6347L92.4988 79.4959L92.3636 79.9773ZM91.6761 81.1364L92.0338 81.4858L92.0358 81.4837L91.6761 81.1364ZM90.483 81.9091L90.6622 82.3759L90.6654 82.3746L90.483 81.9091ZM88.8864 81.6818C88.1207 81.6818 87.4887 81.5135 86.9702 81.1979L86.4503 82.0521C87.1514 82.4789 87.9702 82.6818 88.8864 82.6818V81.6818ZM86.9733 81.1998C86.4511 80.8767 86.0458 80.4267 85.7555 79.8363L84.8581 80.2774C85.227 81.0279 85.7573 81.6233 86.4471 82.0502L86.9733 81.1998ZM85.757 79.8393C85.4698 79.2448 85.3182 78.5376 85.3182 77.7045H84.3182C84.3182 78.6594 84.4923 79.5204 84.8566 80.2743L85.757 79.8393ZM85.3182 77.7045C85.3182 76.8717 85.4697 76.1597 85.758 75.5565L84.8557 75.1254C84.4924 75.8857 84.3182 76.7495 84.3182 77.7045H85.3182ZM85.7575 75.5575C86.0509 74.947 86.4508 74.486 86.9548 74.1575L86.4088 73.3197C85.7386 73.7565 85.2218 74.3636 84.8562 75.1243L85.7575 75.5575ZM86.9554 74.1571C87.4558 73.83 88.0476 73.6591 88.75 73.6591V72.6591C87.8766 72.6591 87.0897 72.8746 86.4082 73.3202L86.9554 74.1571ZM88.75 73.6591C89.1478 73.6591 89.5421 73.7252 89.9348 73.8595L90.2583 72.9132C89.7647 72.7445 89.2612 72.6591 88.75 72.6591V73.6591ZM89.9348 73.8595C90.3067 73.9866 90.6495 74.1942 90.9648 74.4898L91.6488 73.7602C91.2368 73.374 90.7728 73.0891 90.2583 72.9132L89.9348 73.8595ZM90.9669 74.4917C91.2647 74.7677 91.5159 75.1463 91.71 75.6467L92.6423 75.2851C92.4045 74.6719 92.0763 74.1565 91.6468 73.7583L90.9669 74.4917ZM91.71 75.6467C91.897 76.129 92 76.7491 92 77.5227H93C93 76.6675 92.8871 75.9164 92.6423 75.2851L91.71 75.6467ZM92 77.5227V78.0909H93V77.5227H92ZM92.5 77.5909H85.7727V78.5909H92.5V77.5909ZM86.2727 78.0909V76.9318H85.2727V78.0909H86.2727ZM85.7727 77.4318H91.1364V76.4318H85.7727V77.4318ZM91.6364 76.9318C91.6364 76.3712 91.5238 75.8522 91.2864 75.3865L90.3955 75.8407C90.552 76.1478 90.6364 76.5076 90.6364 76.9318H91.6364ZM91.2881 75.39C91.0544 74.9227 90.7152 74.5474 90.2752 74.2741L89.7476 75.1236C90.0272 75.2973 90.241 75.5319 90.3937 75.8372L91.2881 75.39ZM90.2772 74.2754C89.8299 73.9946 89.3142 73.8636 88.75 73.8636V74.8636C89.1555 74.8636 89.4808 74.9561 89.7456 75.1224L90.2772 74.2754ZM88.75 73.8636C88.1294 73.8636 87.5663 74.0191 87.0826 74.3478L87.6447 75.1749C87.9413 74.9733 88.3024 74.8636 88.75 74.8636V73.8636ZM87.0835 74.3472C86.625 74.6573 86.2701 75.0646 86.0236 75.5621L86.9196 76.0061C87.0898 75.6626 87.3295 75.3881 87.6438 75.1755L87.0835 74.3472ZM86.0236 75.5621C85.7802 76.0533 85.6591 76.5803 85.6591 77.1364H86.6591C86.6591 76.7303 86.7463 76.3558 86.9196 76.0061L86.0236 75.5621ZM85.6591 77.1364V77.9091H86.6591V77.1364H85.6591ZM85.6591 77.9091C85.6591 78.6238 85.7821 79.263 86.052 79.8074L86.948 79.3631C86.7633 78.9908 86.6591 78.5126 86.6591 77.9091H85.6591ZM86.0543 79.8118C86.3254 80.3451 86.7098 80.7661 87.2083 81.0569L87.7122 80.1931C87.3924 80.0066 87.1367 79.7344 86.9457 79.3587L86.0543 79.8118ZM87.2113 81.0586C87.7068 81.3431 88.2705 81.4773 88.8864 81.4773V80.4773C88.4189 80.4773 88.0319 80.3766 87.7092 80.1914L87.2113 81.0586ZM88.8864 81.4773C89.285 81.4773 89.6598 81.4215 90.0047 81.302L89.6771 80.3571C89.4539 80.4345 89.1922 80.4773 88.8864 80.4773V81.4773ZM90.0083 81.3007C90.3594 81.176 90.6697 80.9879 90.9322 80.735L90.2383 80.015C90.0841 80.1636 89.8982 80.2786 89.6735 80.3584L90.0083 81.3007ZM90.9355 80.7318C91.2013 80.4708 91.3999 80.153 91.5363 79.7892L90.6 79.4381C90.5092 79.6803 90.3858 79.8701 90.2349 80.0182L90.9355 80.7318ZM90.9331 80.095L92.2285 80.4587L92.4988 79.4959L91.2033 79.1322L90.9331 80.095ZM91.8861 79.8291C91.7731 80.1932 91.5846 80.5115 91.3165 80.789L92.0358 81.4837C92.4117 81.0946 92.6814 80.6401 92.8412 80.1255L91.8861 79.8291ZM91.3185 80.7869C91.051 81.0608 90.7149 81.2811 90.3005 81.4436L90.6654 82.3746C91.198 82.1658 91.6574 81.871 92.0338 81.4858L91.3185 80.7869ZM90.3037 81.4423C89.896 81.5989 89.4259 81.6818 88.8864 81.6818V82.6818C89.5286 82.6818 90.1229 82.5829 90.6622 82.3759L90.3037 81.4423Z" fill="black" mask="url(#path-2-outside-1_1_6)"/>
</svg>
